<svg width="68" height="68" viewBox="0 0 68 68" fill="none" xmlns="http://www.w3.org/2000/svg">
<circle cx="34" cy="34" r="34" fill="#A82DCA"/>
<g filter="url(#filter0_d_118_63)">
<path d="M43.7108 27.4L50.9554 20.1554C51.3561 19.7405 51.5778 19.1847 51.5728 18.6079C51.5678 18.0311 51.3364 17.4793 50.9286 17.0714C50.5207 16.6635 49.9689 16.4321 49.392 16.4271C48.8152 16.4221 48.2595 16.6439 47.8446 17.0446L40.6 24.2892V20.8C40.6 20.2165 40.3682 19.6569 39.9556 19.2444C39.543 18.8318 38.9834 18.6 38.4 18.6C37.8165 18.6 37.2569 18.8318 36.8443 19.2444C36.4317 19.6569 36.2 20.2165 36.2 20.8V29.6066C36.2 30.0408 36.329 30.4652 36.5707 30.826C36.8124 31.1868 37.1558 31.4676 37.5574 31.6328C37.8245 31.7435 38.1108 31.8003 38.4 31.8H47.2C47.7834 31.8 48.343 31.5682 48.7556 31.1556C49.1682 30.7431 49.4 30.1835 49.4 29.6C49.4 29.0165 49.1682 28.4569 48.7556 28.0444C48.343 27.6318 47.7834 27.4 47.2 27.4H43.7108Z" fill="#FAFAFA"/>
<path d="M16.3999 18.6C16.3999 18.0165 16.6317 17.4569 17.0443 17.0444C17.4568 16.6318 18.0164 16.4 18.5999 16.4H23.3365C23.8573 16.4002 24.361 16.5852 24.7582 16.922C25.1554 17.2587 25.4203 17.7255 25.5057 18.2392L27.1337 27.9962C27.2115 28.4609 27.138 28.9383 26.9242 29.3581C26.7103 29.7779 26.3673 30.1179 25.9457 30.3282L22.5401 32.0288C23.7613 35.0552 25.5801 37.8044 27.8878 40.1121C30.1955 42.4198 32.9447 44.2386 35.9711 45.4598L37.6739 42.0542C37.884 41.633 38.2238 41.2903 38.6431 41.0764C39.0625 40.8626 39.5394 40.7889 40.0037 40.8662L49.7607 42.4942C50.2744 42.5796 50.7412 42.8445 51.0779 43.2417C51.4147 43.6389 51.5997 44.1426 51.5999 44.6634V49.4C51.5999 49.9835 51.3681 50.543 50.9555 50.9556C50.543 51.3682 49.9834 51.6 49.3999 51.6H44.9999C29.2039 51.6 16.3999 38.796 16.3999 23V18.6Z" fill="#FAFAFA"/>
</g>
<defs>
<filter id="filter0_d_118_63" x="11" y="12" width="52" height="52" filterUnits="userSpaceOnUse" color-interpolation-filters="sRGB">
<feFlood flood-opacity="0" result="BackgroundImageFix"/>
<feColorMatrix in="SourceAlpha" type="matrix" values="0 0 0 0 0 0 0 0 0 0 0 0 0 0 0 0 0 0 127 0" result="hardAlpha"/>
<feOffset dx="3" dy="4"/>
<feGaussianBlur stdDeviation="2"/>
<feColorMatrix type="matrix" values="0 0 0 0 0 0 0 0 0 0 0 0 0 0 0 0 0 0 0.25 0"/>
<feBlend mode="normal" in2="BackgroundImageFix" result="effect1_dropShadow_118_63"/>
<feBlend mode="normal" in="SourceGraphic" in2="effect1_dropShadow_118_63" result="shape"/>
</filter>
</defs>
</svg>
